<?xml version="1.0" encoding="UTF-8"?>

<!DOCTYPE svg PUBLIC '-//W3C//DTD SVG 1.0//EN' 'http://www.w3.org/TR/2001/REC-SVG-20010904/DTD/svg10.dtd'>
<svg fill-opacity="1" xmlns:xlink="http://www.w3.org/1999/xlink" color-rendering="auto" color-interpolation="auto" text-rendering="auto" stroke="black" stroke-linecap="square" width="333" stroke-miterlimit="10" shape-rendering="auto" stroke-opacity="1" fill="black" stroke-dasharray="none" font-weight="normal" stroke-width="1" height="299" xmlns="http://www.w3.org/2000/svg" font-family="&apos;Dialog&apos;" font-style="normal" stroke-linejoin="miter" font-size="12" stroke-dashoffset="0" image-rendering="auto">
  <!--Generated by x2svg with the help of Batik SVG Generator-->
  <defs id="genericDefs" />
  <g>
    <g fill="silver" stroke="silver">
      <rect x="8" y="139" width="36" rx="1" ry="1" height="20" stroke="none" />
      <rect x="8" y="139" fill="none" width="36" rx="1" ry="1" height="20" />
      <rect x="7" y="140" fill="rgb(64,64,64)" width="36" rx="1" ry="1" height="20" stroke="none" />
      <rect x="7" y="140" fill="none" width="36" rx="1" ry="1" height="20" stroke="rgb(64,64,64)" />
      <rect x="6" y="141" fill="white" width="36" rx="1" ry="1" height="20" stroke="none" />
      <rect x="6" y="141" fill="none" width="36" rx="1" ry="1" height="20" stroke="black" />
    </g>
    <g font-size="8" font-family="sans-serif">
      <text xml:space="preserve" x="8" y="150" stroke="none">1</text>
      <text xml:space="preserve" x="8" y="158" stroke="none">1</text>
      <text xml:space="preserve" x="15" font-size="12" y="155" stroke="none">root</text>
      <line y2="152" fill="none" x1="43" x2="50" y1="152" />
    </g>
    <g fill="silver" font-family="sans-serif" stroke-linecap="round" stroke-linejoin="round" stroke="silver">
      <polygon points=" 52 146 55 143 67 143 70 146 70 154 67 157 55 157 52 154 52 146" stroke="none" />
      <polygon fill="none" points=" 52 146 55 143 67 143 70 146 70 154 67 157 55 157 52 154 52 146" />
      <polygon fill="rgb(64,64,64)" points=" 51 147 54 144 66 144 69 147 69 155 66 158 54 158 51 155 51 147" stroke="none" />
      <polygon fill="none" points=" 51 147 54 144 66 144 69 147 69 155 66 158 54 158 51 155 51 147" stroke="rgb(64,64,64)" />
      <polygon fill="white" points=" 50 148 53 145 65 145 68 148 68 156 65 159 53 159 50 156 50 148" stroke="none" />
      <polygon fill="none" points=" 50 148 53 145 65 145 68 148 68 156 65 159 53 159 50 156 50 148" stroke="black" />
      <line fill="none" x1="53" x2="65" y1="152" y2="152" stroke="black" />
      <circle fill="black" r="1" cx="55" cy="152" stroke="none" />
      <circle fill="black" r="1" cx="59" cy="152" stroke="none" />
      <circle fill="black" r="1" cx="63" cy="152" stroke="none" />
      <line fill="none" x1="68" x2="77" y1="152" y2="152" stroke="black" />
    </g>
    <g fill="silver" stroke-miterlimit="1" stroke-dasharray="2,2" font-family="sans-serif" stroke="silver">
      <rect x="85" y="8" width="34" rx="1" ry="1" height="20" stroke="none" />
      <rect x="85" y="8" fill="none" width="34" rx="1" ry="1" height="20" />
      <rect x="84" y="9" fill="rgb(64,64,64)" width="34" rx="1" ry="1" height="20" stroke="none" />
      <rect x="84" y="9" fill="none" width="34" rx="1" ry="1" height="20" stroke="rgb(64,64,64)" />
      <rect x="83" y="10" fill="white" width="34" rx="1" ry="1" height="20" stroke="none" />
      <rect x="83" y="10" fill="none" width="34" rx="1" ry="1" height="20" stroke="black" />
      <text x="85" font-size="8" y="19" fill="black" stroke="none" xml:space="preserve">1</text>
      <text x="85" font-size="8" y="27" fill="black" stroke="none" xml:space="preserve">0</text>
    </g>
    <g font-size="8" font-family="sans-serif" stroke-linecap="round" stroke-linejoin="round">
      <line y2="16" fill="none" x1="110" x2="110" y1="10" />
      <line y2="16" fill="none" x1="110" x2="117" y1="16" />
      <line y2="16" fill="none" x1="110" x2="117" y1="10" />
      <text xml:space="preserve" x="92" font-size="12" y="24" stroke="none">a</text>
      <line y2="16" fill="none" x1="110" x2="110" y1="10" />
      <line y2="16" fill="none" x1="110" x2="117" y1="16" />
      <line y2="16" fill="none" x1="110" x2="117" y1="10" />
    </g>
    <g stroke-miterlimit="1" stroke-dasharray="2,2" font-family="sans-serif">
      <line y2="21" fill="none" x1="77" x2="82" y1="21" />
    </g>
    <g fill="silver" font-family="sans-serif" stroke="silver">
      <rect x="85" y="124" width="28" rx="1" ry="1" height="20" stroke="none" />
      <rect x="85" y="124" fill="none" width="28" rx="1" ry="1" height="20" />
      <rect x="84" y="125" fill="rgb(64,64,64)" width="28" rx="1" ry="1" height="20" stroke="none" />
      <rect x="84" y="125" fill="none" width="28" rx="1" ry="1" height="20" stroke="rgb(64,64,64)" />
      <rect x="83" y="126" fill="white" width="28" rx="1" ry="1" height="20" stroke="none" />
      <rect x="83" y="126" fill="none" width="28" rx="1" ry="1" height="20" stroke="black" />
      <text x="85" font-size="8" y="135" fill="black" stroke="none" xml:space="preserve">*</text>
      <text x="85" font-size="8" y="143" fill="black" stroke="none" xml:space="preserve">1</text>
      <text fill="black" xml:space="preserve" x="92" y="140" stroke="none">b</text>
      <line fill="none" x1="112" x2="119" y1="137" y2="137" stroke="black" />
      <polygon points=" 121 131 124 128 136 128 139 131 139 139 136 142 124 142 121 139 121 131" stroke-linecap="round" stroke-linejoin="round" stroke="none" />
      <polygon fill="none" points=" 121 131 124 128 136 128 139 131 139 139 136 142 124 142 121 139 121 131" stroke-linecap="round" stroke-linejoin="round" />
    </g>
    <g fill="rgb(64,64,64)" font-family="sans-serif" stroke-linecap="round" stroke-linejoin="round" stroke="rgb(64,64,64)">
      <polygon points=" 120 132 123 129 135 129 138 132 138 140 135 143 123 143 120 140 120 132" stroke="none" />
      <polygon fill="none" points=" 120 132 123 129 135 129 138 132 138 140 135 143 123 143 120 140 120 132" />
      <polygon fill="white" points=" 119 133 122 130 134 130 137 133 137 141 134 144 122 144 119 141 119 133" stroke="none" />
      <polygon fill="none" points=" 119 133 122 130 134 130 137 133 137 141 134 144 122 144 119 141 119 133" stroke="black" />
      <line fill="none" x1="122" x2="134" y1="137" y2="137" stroke="black" />
      <circle fill="black" r="1" cx="124" cy="137" stroke="none" />
      <circle fill="black" r="1" cx="128" cy="137" stroke="none" />
      <circle fill="black" r="1" cx="132" cy="137" stroke="none" />
      <line fill="none" x1="137" x2="146" y1="137" y2="137" stroke="black" />
    </g>
    <g font-family="sans-serif">
      <line y2="137" fill="none" x1="77" x2="82" y1="137" />
      <rect x="154" y="40" fill="silver" width="34" rx="1" ry="1" height="20" stroke="none" />
      <rect x="154" y="40" fill="none" width="34" rx="1" ry="1" height="20" stroke="silver" />
      <rect x="153" y="41" fill="rgb(64,64,64)" width="34" rx="1" ry="1" height="20" stroke="none" />
      <rect x="153" y="41" fill="none" width="34" rx="1" ry="1" height="20" stroke="rgb(64,64,64)" />
      <rect x="152" y="42" fill="white" width="34" rx="1" ry="1" height="20" stroke="none" />
      <rect x="152" y="42" fill="none" width="34" rx="1" ry="1" height="20" />
      <text xml:space="preserve" x="154" font-size="8" y="51" stroke="none">1</text>
      <text xml:space="preserve" x="154" font-size="8" y="59" stroke="none">1</text>
      <line stroke-linecap="round" fill="none" x1="179" x2="179" y1="42" y2="48" stroke-linejoin="round" />
      <line stroke-linecap="round" fill="none" x1="179" x2="186" y1="48" y2="48" stroke-linejoin="round" />
      <line stroke-linecap="round" fill="none" x1="179" x2="186" y1="42" y2="48" stroke-linejoin="round" />
      <text stroke-linecap="round" x="161" y="56" stroke-linejoin="round" stroke="none" xml:space="preserve">a</text>
      <line stroke-linecap="round" fill="none" x1="179" x2="179" y1="42" y2="48" stroke-linejoin="round" />
      <line stroke-linecap="round" fill="none" x1="179" x2="186" y1="48" y2="48" stroke-linejoin="round" />
      <line stroke-linecap="round" fill="none" x1="179" x2="186" y1="42" y2="48" stroke-linejoin="round" />
      <line y2="53" fill="none" x1="146" x2="151" y1="53" />
    </g>
    <g fill="silver" stroke-miterlimit="1" stroke-dasharray="2,2" font-family="sans-serif" stroke="silver">
      <rect x="154" y="142" width="33" rx="1" ry="1" height="20" stroke="none" />
      <rect x="154" y="142" fill="none" width="33" rx="1" ry="1" height="20" />
      <rect x="153" y="143" fill="rgb(64,64,64)" width="33" rx="1" ry="1" height="20" stroke="none" />
      <rect x="153" y="143" fill="none" width="33" rx="1" ry="1" height="20" stroke="rgb(64,64,64)" />
      <rect x="152" y="144" fill="white" width="33" rx="1" ry="1" height="20" stroke="none" />
      <rect x="152" y="144" fill="none" width="33" rx="1" ry="1" height="20" stroke="black" />
      <text x="154" font-size="8" y="153" fill="black" stroke="none" xml:space="preserve">*</text>
      <text x="154" font-size="8" y="161" fill="black" stroke="none" xml:space="preserve">0</text>
    </g>
    <g stroke-linecap="round" font-size="8" fill="silver" font-family="sans-serif" stroke-linejoin="round" stroke="silver">
      <polygon points=" 164 149 167 146 179 146 182 149 182 157 179 160 167 160 164 157 164 149" stroke="none" />
      <polygon fill="none" points=" 164 149 167 146 179 146 182 149 182 157 179 160 167 160 164 157 164 149" />
      <polygon fill="rgb(64,64,64)" points=" 163 150 166 147 178 147 181 150 181 158 178 161 166 161 163 158 163 150" stroke="none" />
      <polygon fill="none" points=" 163 150 166 147 178 147 181 150 181 158 178 161 166 161 163 158 163 150" stroke="rgb(64,64,64)" />
      <polygon fill="white" points=" 162 151 165 148 177 148 180 151 180 159 177 162 165 162 162 159 162 151" stroke="none" />
      <polygon fill="none" points=" 162 151 165 148 177 148 180 151 180 159 177 162 165 162 162 159 162 151" stroke="black" />
      <line y2="155" fill="none" x1="165" x2="177" y1="155" />
      <line y2="151" fill="none" x1="169" x2="169" y1="155" />
      <line y2="151" fill="none" x1="169" x2="175" y1="151" />
      <circle r="1" cx="173" cy="151" stroke="none" />
      <line fill="none" x1="165" x2="169" y1="155" y2="155" stroke="black" />
      <line fill="none" x1="169" x2="169" y1="155" y2="159" stroke="black" />
      <line fill="none" x1="169" x2="175" y1="159" y2="159" stroke="black" />
      <circle fill="black" r="1" cx="167" cy="155" stroke="none" />
      <circle fill="black" r="1" cx="173" cy="159" stroke="none" />
      <line fill="none" x1="185" x2="220" y1="155" y2="155" stroke="black" />
    </g>
    <g stroke-miterlimit="1" stroke-dasharray="2,2" font-size="8" font-family="sans-serif">
      <line y2="155" fill="none" x1="146" x2="151" y1="155" />
      <line y2="155" fill="none" x1="146" x2="151" y1="155" />
    </g>
    <g fill="silver" font-size="8" font-family="sans-serif" stroke="silver">
      <rect x="228" y="72" width="34" rx="1" ry="1" height="20" stroke="none" />
      <rect x="228" y="72" fill="none" width="34" rx="1" ry="1" height="20" />
      <rect x="227" y="73" fill="rgb(64,64,64)" width="34" rx="1" ry="1" height="20" stroke="none" />
      <rect x="227" y="73" fill="none" width="34" rx="1" ry="1" height="20" stroke="rgb(64,64,64)" />
      <rect x="226" y="74" fill="white" width="34" rx="1" ry="1" height="20" stroke="none" />
      <rect x="226" y="74" fill="none" width="34" rx="1" ry="1" height="20" stroke="black" />
      <text fill="black" xml:space="preserve" x="228" y="83" stroke="none">1</text>
      <text fill="black" xml:space="preserve" x="228" y="91" stroke="none">1</text>
    </g>
    <g font-size="8" font-family="sans-serif" stroke-linecap="round" stroke-linejoin="round">
      <line y2="80" fill="none" x1="253" x2="253" y1="74" />
      <line y2="80" fill="none" x1="253" x2="260" y1="80" />
      <line y2="80" fill="none" x1="253" x2="260" y1="74" />
      <text xml:space="preserve" x="235" font-size="12" y="88" stroke="none">d</text>
      <line y2="80" fill="none" x1="253" x2="253" y1="74" />
      <line y2="80" fill="none" x1="253" x2="260" y1="80" />
      <line y2="80" fill="none" x1="253" x2="260" y1="74" />
      <line stroke-linecap="square" fill="none" x1="220" x2="225" y1="85" y2="85" stroke-linejoin="miter" />
    </g>
    <g fill="silver" font-family="sans-serif" stroke="silver">
      <rect x="228" y="130" width="28" rx="1" ry="1" height="20" stroke="none" />
      <rect x="228" y="130" fill="none" width="28" rx="1" ry="1" height="20" />
      <rect x="227" y="131" fill="rgb(64,64,64)" width="28" rx="1" ry="1" height="20" stroke="none" />
      <rect x="227" y="131" fill="none" width="28" rx="1" ry="1" height="20" stroke="rgb(64,64,64)" />
      <rect x="226" y="132" fill="white" width="28" rx="1" ry="1" height="20" stroke="none" />
      <rect x="226" y="132" fill="none" width="28" rx="1" ry="1" height="20" stroke="black" />
      <text x="228" font-size="8" y="141" fill="black" stroke="none" xml:space="preserve">1</text>
      <text x="228" font-size="8" y="149" fill="black" stroke="none" xml:space="preserve">1</text>
      <text fill="black" xml:space="preserve" x="235" y="146" stroke="none">e</text>
      <line fill="none" x1="255" x2="262" y1="143" y2="143" stroke="black" />
      <polygon points=" 264 137 267 134 279 134 282 137 282 145 279 148 267 148 264 145 264 137" stroke-linecap="round" stroke-linejoin="round" stroke="none" />
      <polygon fill="none" points=" 264 137 267 134 279 134 282 137 282 145 279 148 267 148 264 145 264 137" stroke-linecap="round" stroke-linejoin="round" />
    </g>
    <g fill="rgb(64,64,64)" font-family="sans-serif" stroke-linecap="round" stroke-linejoin="round" stroke="rgb(64,64,64)">
      <polygon points=" 263 138 266 135 278 135 281 138 281 146 278 149 266 149 263 146 263 138" stroke="none" />
      <polygon fill="none" points=" 263 138 266 135 278 135 281 138 281 146 278 149 266 149 263 146 263 138" />
      <polygon fill="white" points=" 262 139 265 136 277 136 280 139 280 147 277 150 265 150 262 147 262 139" stroke="none" />
      <polygon fill="none" points=" 262 139 265 136 277 136 280 139 280 147 277 150 265 150 262 147 262 139" stroke="black" />
      <line fill="none" x1="265" x2="277" y1="143" y2="143" stroke="silver" />
      <line fill="none" x1="269" x2="269" y1="143" y2="139" stroke="silver" />
      <line fill="none" x1="269" x2="275" y1="139" y2="139" stroke="silver" />
      <circle fill="silver" r="1" cx="273" cy="139" stroke="none" />
      <line fill="none" x1="265" x2="269" y1="143" y2="143" stroke="black" />
      <line fill="none" x1="269" x2="269" y1="143" y2="147" stroke="black" />
      <line fill="none" x1="269" x2="275" y1="147" y2="147" stroke="black" />
      <circle fill="black" r="1" cx="267" cy="143" stroke="none" />
      <circle fill="black" r="1" cx="273" cy="147" stroke="none" />
      <line fill="none" x1="280" x2="289" y1="143" y2="143" stroke="black" />
    </g>
    <g font-family="sans-serif">
      <line y2="143" fill="none" x1="220" x2="225" y1="143" />
      <rect x="297" y="104" fill="silver" width="34" rx="1" ry="1" height="20" stroke="none" />
      <rect x="297" y="104" fill="none" width="34" rx="1" ry="1" height="20" stroke="silver" />
      <rect x="296" y="105" fill="rgb(64,64,64)" width="34" rx="1" ry="1" height="20" stroke="none" />
      <rect x="296" y="105" fill="none" width="34" rx="1" ry="1" height="20" stroke="rgb(64,64,64)" />
      <rect x="295" y="106" fill="white" width="34" rx="1" ry="1" height="20" stroke="none" />
      <rect x="295" y="106" fill="none" width="34" rx="1" ry="1" height="20" />
      <text xml:space="preserve" x="297" font-size="8" y="115" stroke="none">*</text>
      <text xml:space="preserve" x="297" font-size="8" y="123" stroke="none">1</text>
      <line stroke-linecap="round" fill="none" x1="322" x2="322" y1="106" y2="112" stroke-linejoin="round" />
      <line stroke-linecap="round" fill="none" x1="322" x2="329" y1="112" y2="112" stroke-linejoin="round" />
      <line stroke-linecap="round" fill="none" x1="322" x2="329" y1="106" y2="112" stroke-linejoin="round" />
      <text stroke-linecap="round" x="304" y="120" stroke-linejoin="round" stroke="none" xml:space="preserve">f</text>
      <line stroke-linecap="round" fill="none" x1="322" x2="322" y1="106" y2="112" stroke-linejoin="round" />
      <line stroke-linecap="round" fill="none" x1="322" x2="329" y1="112" y2="112" stroke-linejoin="round" />
      <line stroke-linecap="round" fill="none" x1="322" x2="329" y1="106" y2="112" stroke-linejoin="round" />
      <line y2="117" fill="none" x1="289" x2="294" y1="117" />
    </g>
    <g fill="silver" stroke-miterlimit="1" stroke-dasharray="2,2" font-family="sans-serif" stroke="silver">
      <rect x="297" y="133" width="34" rx="1" ry="1" height="20" stroke="none" />
      <rect x="297" y="133" fill="none" width="34" rx="1" ry="1" height="20" />
      <rect x="296" y="134" fill="rgb(64,64,64)" width="34" rx="1" ry="1" height="20" stroke="none" />
      <rect x="296" y="134" fill="none" width="34" rx="1" ry="1" height="20" stroke="rgb(64,64,64)" />
      <rect x="295" y="135" fill="white" width="34" rx="1" ry="1" height="20" stroke="none" />
      <rect x="295" y="135" fill="none" width="34" rx="1" ry="1" height="20" stroke="black" />
      <text x="297" font-size="8" y="144" fill="black" stroke="none" xml:space="preserve">1</text>
      <text x="297" font-size="8" y="152" fill="black" stroke="none" xml:space="preserve">0</text>
    </g>
    <g font-size="8" font-family="sans-serif" stroke-linecap="round" stroke-linejoin="round">
      <line y2="141" fill="none" x1="322" x2="322" y1="135" />
      <line y2="141" fill="none" x1="322" x2="329" y1="141" />
      <line y2="141" fill="none" x1="322" x2="329" y1="135" />
      <text xml:space="preserve" x="304" font-size="12" y="149" stroke="none">d</text>
      <line y2="141" fill="none" x1="322" x2="322" y1="135" />
      <line y2="141" fill="none" x1="322" x2="329" y1="141" />
      <line y2="141" fill="none" x1="322" x2="329" y1="135" />
    </g>
    <g stroke-miterlimit="1" stroke-dasharray="2,2" font-family="sans-serif">
      <line y2="146" fill="none" x1="289" x2="294" y1="146" />
      <rect x="297" y="162" fill="silver" width="34" rx="1" ry="1" height="20" stroke="none" />
      <rect x="297" y="162" fill="none" width="34" rx="1" ry="1" height="20" stroke="silver" />
      <rect x="296" y="163" fill="rgb(64,64,64)" width="34" rx="1" ry="1" height="20" stroke="none" />
      <rect x="296" y="163" fill="none" width="34" rx="1" ry="1" height="20" stroke="rgb(64,64,64)" />
      <rect x="295" y="164" fill="white" width="34" rx="1" ry="1" height="20" stroke="none" />
      <rect x="295" y="164" fill="none" width="34" rx="1" ry="1" height="20" />
      <text xml:space="preserve" x="297" font-size="8" y="173" stroke="none">*</text>
      <text xml:space="preserve" x="297" font-size="8" y="181" stroke="none">0</text>
    </g>
    <g font-size="8" font-family="sans-serif" stroke-linecap="round" stroke-linejoin="round">
      <circle fill="none" r="2.5" cx="324.5" cy="168.5" />
      <line y2="166" fill="none" x1="322" x2="327" y1="171" />
      <text xml:space="preserve" x="304" font-size="12" y="178" stroke="none">g</text>
    </g>
    <g stroke-miterlimit="1" stroke-dasharray="2,2" font-family="sans-serif">
      <line y2="175" fill="none" x1="289" x2="294" y1="175" />
      <line fill="none" x1="289" x2="289" y1="117" y2="175" stroke-dasharray="none" stroke-miterlimit="10" />
      <rect x="228" y="188" fill="silver" width="34" rx="1" ry="1" height="20" stroke="none" />
      <rect x="228" y="188" fill="none" width="34" rx="1" ry="1" height="20" stroke="silver" />
      <rect x="227" y="189" fill="rgb(64,64,64)" width="34" rx="1" ry="1" height="20" stroke="none" />
      <rect x="227" y="189" fill="none" width="34" rx="1" ry="1" height="20" stroke="rgb(64,64,64)" />
      <rect x="226" y="190" fill="white" width="34" rx="1" ry="1" height="20" stroke="none" />
      <rect x="226" y="190" fill="none" width="34" rx="1" ry="1" height="20" />
      <text xml:space="preserve" x="228" font-size="8" y="199" stroke="none">1</text>
      <text xml:space="preserve" x="228" font-size="8" y="207" stroke="none">0</text>
    </g>
    <g font-size="8" font-family="sans-serif" stroke-linecap="round" stroke-linejoin="round">
      <line y2="196" fill="none" x1="253" x2="253" y1="190" />
      <line y2="196" fill="none" x1="253" x2="260" y1="196" />
      <line y2="196" fill="none" x1="253" x2="260" y1="190" />
      <text xml:space="preserve" x="235" font-size="12" y="204" stroke="none">f</text>
      <line y2="196" fill="none" x1="253" x2="253" y1="190" />
      <line y2="196" fill="none" x1="253" x2="260" y1="196" />
      <line y2="196" fill="none" x1="253" x2="260" y1="190" />
    </g>
    <g stroke-miterlimit="1" stroke-dasharray="2,2" font-family="sans-serif">
      <line y2="201" fill="none" x1="220" x2="225" y1="201" />
    </g>
    <g fill="silver" font-family="sans-serif" stroke="silver">
      <rect x="228" y="217" width="34" rx="1" ry="1" height="20" stroke="none" />
      <rect x="228" y="217" fill="none" width="34" rx="1" ry="1" height="20" />
      <rect x="227" y="218" fill="rgb(64,64,64)" width="34" rx="1" ry="1" height="20" stroke="none" />
      <rect x="227" y="218" fill="none" width="34" rx="1" ry="1" height="20" stroke="rgb(64,64,64)" />
      <rect x="226" y="219" fill="white" width="34" rx="1" ry="1" height="20" stroke="none" />
      <rect x="226" y="219" fill="none" width="34" rx="1" ry="1" height="20" stroke="black" />
      <text x="228" font-size="8" y="228" fill="black" stroke="none" xml:space="preserve">1</text>
      <text x="228" font-size="8" y="236" fill="black" stroke="none" xml:space="preserve">1</text>
    </g>
    <g font-size="8" font-family="sans-serif" stroke-linecap="round" stroke-linejoin="round">
      <circle fill="none" r="2.5" cx="255.5" cy="223.5" />
      <line y2="221" fill="none" x1="253" x2="258" y1="226" />
      <text xml:space="preserve" x="235" font-size="12" y="233" stroke="none">g</text>
      <line stroke-linecap="square" fill="none" x1="220" x2="225" y1="230" y2="230" stroke-linejoin="miter" />
      <line stroke-linecap="square" fill="none" x1="220" x2="220" y1="85" y2="230" stroke-linejoin="miter" />
      <line stroke-linecap="square" fill="none" x1="146" x2="146" y1="53" y2="155" stroke-linejoin="miter" />
    </g>
    <g fill="silver" stroke-miterlimit="1" stroke-dasharray="2,2" font-family="sans-serif" stroke="silver">
      <rect x="85" y="255" width="28" rx="1" ry="1" height="20" stroke="none" />
      <rect x="85" y="255" fill="none" width="28" rx="1" ry="1" height="20" />
      <rect x="84" y="256" fill="rgb(64,64,64)" width="28" rx="1" ry="1" height="20" stroke="none" />
      <rect x="84" y="256" fill="none" width="28" rx="1" ry="1" height="20" stroke="rgb(64,64,64)" />
      <rect x="83" y="257" fill="white" width="28" rx="1" ry="1" height="20" stroke="none" />
      <rect x="83" y="257" fill="none" width="28" rx="1" ry="1" height="20" stroke="black" />
      <text x="85" font-size="8" y="266" fill="black" stroke="none" xml:space="preserve">*</text>
      <text x="85" font-size="8" y="274" fill="black" stroke="none" xml:space="preserve">0</text>
      <text fill="black" xml:space="preserve" x="92" y="271" stroke="none">c</text>
      <line fill="none" x1="112" x2="119" y1="268" y2="268" stroke="black" />
    </g>
    <g fill="silver" font-family="sans-serif" stroke-linecap="round" stroke-linejoin="round" stroke="silver">
      <polygon points=" 121 262 124 259 136 259 139 262 139 270 136 273 124 273 121 270 121 262" stroke="none" />
      <polygon fill="none" points=" 121 262 124 259 136 259 139 262 139 270 136 273 124 273 121 270 121 262" />
      <polygon fill="rgb(64,64,64)" points=" 120 263 123 260 135 260 138 263 138 271 135 274 123 274 120 271 120 263" stroke="none" />
      <polygon fill="none" points=" 120 263 123 260 135 260 138 263 138 271 135 274 123 274 120 271 120 263" stroke="rgb(64,64,64)" />
      <polygon fill="white" points=" 119 264 122 261 134 261 137 264 137 272 134 275 122 275 119 272 119 264" stroke="none" />
      <polygon fill="none" points=" 119 264 122 261 134 261 137 264 137 272 134 275 122 275 119 272 119 264" stroke="black" />
      <line fill="none" x1="122" x2="134" y1="268" y2="268" stroke="black" />
      <circle fill="black" r="1" cx="124" cy="268" stroke="none" />
      <circle fill="black" r="1" cx="128" cy="268" stroke="none" />
      <circle fill="black" r="1" cx="132" cy="268" stroke="none" />
      <line fill="none" x1="137" x2="146" y1="268" y2="268" stroke="black" />
    </g>
    <g stroke-miterlimit="1" stroke-dasharray="2,2" font-family="sans-serif">
      <line y2="268" fill="none" x1="77" x2="82" y1="268" />
    </g>
    <g fill="silver" font-family="sans-serif" stroke="silver">
      <rect x="154" y="243" width="34" rx="1" ry="1" height="20" stroke="none" />
      <rect x="154" y="243" fill="none" width="34" rx="1" ry="1" height="20" />
      <rect x="153" y="244" fill="rgb(64,64,64)" width="34" rx="1" ry="1" height="20" stroke="none" />
      <rect x="153" y="244" fill="none" width="34" rx="1" ry="1" height="20" stroke="rgb(64,64,64)" />
      <rect x="152" y="245" fill="white" width="34" rx="1" ry="1" height="20" stroke="none" />
      <rect x="152" y="245" fill="none" width="34" rx="1" ry="1" height="20" stroke="black" />
      <text x="154" font-size="8" y="254" fill="black" stroke="none" xml:space="preserve">*</text>
      <text x="154" font-size="8" y="262" fill="black" stroke="none" xml:space="preserve">1</text>
    </g>
    <g font-size="8" font-family="sans-serif" stroke-linecap="round" stroke-linejoin="round">
      <line y2="251" fill="none" x1="179" x2="179" y1="245" />
      <line y2="251" fill="none" x1="179" x2="186" y1="251" />
      <line y2="251" fill="none" x1="179" x2="186" y1="245" />
      <text xml:space="preserve" x="161" font-size="12" y="259" stroke="none">f</text>
      <line y2="251" fill="none" x1="179" x2="179" y1="245" />
      <line y2="251" fill="none" x1="179" x2="186" y1="251" />
      <line y2="251" fill="none" x1="179" x2="186" y1="245" />
      <line stroke-linecap="square" fill="none" x1="146" x2="151" y1="256" y2="256" stroke-linejoin="miter" />
    </g>
    <g fill="silver" stroke-miterlimit="1" stroke-dasharray="2,2" font-family="sans-serif" stroke="silver">
      <rect x="154" y="272" width="46" rx="1" ry="1" height="20" stroke="none" />
      <rect x="154" y="272" fill="none" width="46" rx="1" ry="1" height="20" />
      <rect x="153" y="273" fill="rgb(64,64,64)" width="46" rx="1" ry="1" height="20" stroke="none" />
      <rect x="153" y="273" fill="none" width="46" rx="1" ry="1" height="20" stroke="rgb(64,64,64)" />
      <rect x="152" y="274" fill="white" width="46" rx="1" ry="1" height="20" stroke="none" />
      <rect x="152" y="274" fill="none" width="46" rx="1" ry="1" height="20" stroke="black" />
      <text x="154" font-size="8" y="283" fill="black" stroke="none" xml:space="preserve">*</text>
      <text x="154" font-size="8" y="291" fill="black" stroke="none" xml:space="preserve">0</text>
    </g>
    <g font-size="8" font-family="sans-serif" stroke-linecap="round" stroke-linejoin="round">
      <line y2="280" fill="none" x1="191" x2="191" y1="274" />
      <line y2="280" fill="none" x1="191" x2="198" y1="280" />
      <line y2="280" fill="none" x1="191" x2="198" y1="274" />
      <text xml:space="preserve" x="161" font-size="12" y="288" stroke="none">hello</text>
      <line y2="280" fill="none" x1="191" x2="191" y1="274" />
      <line y2="280" fill="none" x1="191" x2="198" y1="280" />
      <line y2="280" fill="none" x1="191" x2="198" y1="274" />
    </g>
    <g stroke-miterlimit="1" stroke-dasharray="2,2" font-family="sans-serif">
      <line y2="285" fill="none" x1="146" x2="151" y1="285" />
      <line fill="none" x1="146" x2="146" y1="256" y2="285" stroke-dasharray="none" stroke-miterlimit="10" />
      <line fill="none" x1="77" x2="77" y1="21" y2="268" stroke-dasharray="none" stroke-miterlimit="10" />
      <text x="400" y="287" stroke-dasharray="none" stroke="none" xml:space="preserve" stroke-miterlimit="10">Done with http://bsd.de/x2svg/</text>
    </g>
  </g>
</svg>
